<svg  viewBox="0 0 18 18" fill="none" xmlns="http://www.w3.org/2000/svg">
<g clip-path="url(#clip0_2_33)">
<mask id="mask0_2_33" style="mask-type:luminance" maskUnits="userSpaceOnUse" x="0" y="0" width="18" height="18">
<path d="M0 0H18V18H0V0Z" fill="white"/>
</mask>
<g mask="url(#mask0_2_33)">
<path d="M0 0H18V18H0V0Z" fill="white"/>
<path fill-rule="evenodd" clip-rule="evenodd" d="M15.002 9.235C15.234 9.405 15.474 9.529 15.474 9.8C15.474 9.879 15.374 9.956 15.149 9.956C14.979 9.956 14.794 9.91 14.709 9.785C14.639 9.692 14.739 9.568 14.678 9.475C14.631 9.398 14.523 9.436 14.453 9.398C14.369 9.351 14.361 9.312 14.307 9.196C14.245 9.056 14.037 8.824 13.789 8.576C13.58 8.368 13.356 8.259 13.255 8.266C13.185 8.275 13.162 8.275 13.092 8.275C12.914 8.275 12.76 8.445 12.505 8.553C12.327 8.631 12.226 8.677 12.111 8.693L12.072 8.739L12.304 8.732C12.52 8.732 12.806 8.701 13.023 8.701C13.248 8.701 13.356 8.902 13.441 9.111C13.611 9.537 13.866 10.15 14.168 10.661C14.314 10.901 14.438 11.056 14.438 11.351C14.438 11.444 14.43 11.568 14.306 11.568C14.136 11.568 13.704 11.39 13.704 11.196C13.704 11.048 13.82 10.986 13.82 10.839C13.82 10.746 13.68 10.762 13.65 10.676C13.541 10.22 13.41 9.769 13.154 9.498C13.023 9.358 13.007 9.297 12.876 9.297C12.806 9.297 12.736 9.312 12.675 9.336C12.319 9.468 11.848 9.863 11.26 10.041C11.036 10.111 10.998 9.979 10.766 10.026H10.781C10.595 10.065 10.448 10.173 10.193 10.243C9.837 10.343 9.226 10.39 8.74 10.328C8.392 10.281 7.943 10.212 7.75 10.22C7.603 10.645 7.286 11.204 6.822 11.421C6.575 11.53 6.497 11.684 6.575 11.963C6.668 12.311 6.977 12.567 7.139 12.861C7.286 13.116 7.525 13.52 7.78 13.651C8.035 13.783 8.191 13.976 8.191 14.139C8.191 14.216 8.159 14.263 8.082 14.263H7.572C7.5448 14.2642 7.51782 14.2575 7.49437 14.2437C7.47093 14.2298 7.45203 14.2094 7.44 14.185C7.37 14.054 7.417 13.93 7.325 13.814C7.255 13.729 7.201 13.752 7.115 13.682C6.961 13.535 7.077 13.45 6.961 13.264C6.636 12.753 6.497 12.629 6.227 12.264C6.072 12.071 5.887 11.978 5.887 11.723C5.887 11.413 6.196 11.359 6.188 11.048C5.95748 11.2209 5.68453 11.3284 5.398 11.359C5.31256 11.3962 5.23641 11.4519 5.175 11.522C5.051 11.645 5.005 11.769 4.989 11.955C4.951 12.374 4.866 12.799 4.919 13.217C4.989 13.489 5.036 13.582 5.259 13.729C5.399 13.822 5.561 13.953 5.577 14.146C5.577 14.201 5.561 14.263 5.484 14.263H4.934C4.91049 14.2619 4.88763 14.255 4.86753 14.2427C4.84743 14.2305 4.83074 14.2134 4.819 14.193C4.757 14.085 4.796 14.007 4.773 13.883C4.719 13.628 4.433 13.643 4.433 13.381C4.433 13.302 4.479 13.201 4.487 13.039C4.502 12.683 4.61 12.109 4.502 11.414C4.456 11.009 4.873 10.994 5.09 10.638C5.221 10.436 5.182 10.522 5.26 10.374C5.337 10.22 5.322 10.111 5.314 10.018C5.314 9.902 5.198 9.653 5.275 9.15C5.31445 8.91494 5.41285 8.69372 5.561 8.507C5.561 8.499 5.561 8.468 5.515 8.468C5.298 8.484 5.298 8.43 5.151 8.43C5.09422 8.43292 5.03924 8.45096 4.99177 8.48225C4.9443 8.51355 4.90606 8.55696 4.881 8.608C4.8519 8.59359 4.82724 8.57157 4.80964 8.54428C4.79203 8.517 4.78214 8.48546 4.781 8.453C4.781 8.375 4.796 8.306 4.873 8.228C4.904 8.198 4.873 8.182 4.835 8.182C4.665 8.182 4.502 8.391 4.463 8.538C4.363 8.522 4.356 8.391 4.309 8.391C4.263 8.391 4.232 8.461 4.232 8.531C4.232 9.026 5.036 9.134 5.036 9.785C5.036 10.537 4.131 10.382 4.131 10.653C4.131 10.708 4.17 10.753 4.24 10.785C4.209 10.855 4.131 10.885 4.046 10.885C3.99989 10.8865 3.95395 10.8786 3.91104 10.8616C3.86812 10.8447 3.82914 10.8191 3.79652 10.7865C3.76389 10.7539 3.73832 10.7149 3.72137 10.672C3.70442 10.6291 3.69647 10.5831 3.698 10.537C3.698 10.127 4.247 10.119 4.247 9.808C4.247 9.661 4.154 9.614 4.069 9.545C3.544 9.173 3.25 8.801 3.25 8.19C3.25 7.531 3.706 7.027 4.301 7.027C5.167 7.027 5.191 8.027 5.979 8.112C6.273 7.911 6.621 7.795 6.961 7.795C7.471 7.795 7.695 7.926 8.237 7.926C8.454 7.926 8.817 7.864 9.25 7.57C9.412 7.462 9.482 7.439 9.628 7.306C9.968 7.011 10.286 6.438 10.286 6.028V6.051C10.286 5.92 10.255 5.842 10.193 5.842C10.007 5.842 9.845 6.012 9.659 6.191C9.544 6.314 9.721 6.369 9.459 6.516C9.366 6.562 9.258 6.477 9.157 6.477C8.948 6.477 8.856 6.229 8.856 6.013C8.856 5.903 8.941 5.873 8.986 5.773C9.096 5.563 9.088 5.486 9.188 5.277C9.25 5.137 9.358 5.044 9.35 4.944C9.35 4.905 9.32 4.881 9.32 4.843C9.32 4.633 9.598 4.493 9.598 4.285C9.598 4.168 9.466 4.115 9.435 4.021C9.405 3.928 9.428 3.905 9.428 3.905C9.43164 3.89807 9.4371 3.89227 9.4438 3.88822C9.4505 3.88416 9.45817 3.88201 9.466 3.882C9.575 3.882 9.621 3.998 9.721 4.06C9.729 3.92 9.683 3.89 9.683 3.789C9.683 3.735 9.675 3.649 9.729 3.649C9.799 3.649 9.791 3.742 9.853 3.789C9.93 3.851 10 3.843 10.085 3.897C10.193 3.967 10.255 4.083 10.293 4.091C10.402 4.106 10.433 3.975 10.378 3.897C10.502 3.889 10.626 3.99 10.788 3.99C11.044 3.99 11.129 4.06 11.175 4.098C11.338 4.238 11.369 4.346 11.546 4.346C11.639 4.346 11.686 4.269 11.709 4.238C11.833 4.331 11.84 4.563 11.709 4.757C11.763 4.921 11.995 4.936 12.103 5.013C12.211 5.091 12.196 5.129 12.273 5.176C12.335 5.215 12.389 5.207 12.435 5.176C12.49 5.393 12.304 5.586 12.08 5.617C12.088 5.897 12.381 6.067 12.513 6.137C12.435 6.307 12.296 6.361 12.173 6.392C12.211 6.562 12.397 6.81 12.303 7.034C12.219 6.996 12.095 7.034 12.095 7.158C12.095 7.298 12.273 7.368 12.088 7.469C12.002 7.516 11.987 7.639 12.142 7.756C12.342 7.702 12.536 7.709 12.76 7.709C12.9 7.709 13.085 7.671 13.208 7.671C13.441 7.671 13.58 7.764 13.75 7.95C14.175 8.414 14.562 8.902 15.002 9.235Z" fill="#0A0B09"/>
<path fill-rule="evenodd" clip-rule="evenodd" d="M3.528 7.997C3.621 7.997 3.791 7.485 4.139 7.485C4.239 7.485 4.263 7.525 4.263 7.563C4.263 7.633 4.147 7.695 4.147 7.787C4.147 7.803 4.155 7.826 4.185 7.826C4.27 7.826 4.332 7.64 4.68 7.64C4.773 7.64 4.85 7.648 4.935 7.671C4.974 7.679 5.051 7.718 5.02 7.609C4.935 7.369 4.672 7.144 4.301 7.144C3.931 7.144 3.544 7.478 3.497 7.88C3.49 7.95 3.49 7.997 3.528 7.997ZM9.946 4.804C9.846 4.764 9.83 4.71 9.861 4.586C9.884 4.455 9.891 4.4 9.83 4.385C9.776 4.369 9.706 4.4 9.636 4.478C9.575 4.563 9.474 4.664 9.443 4.748C9.413 4.858 9.543 4.842 9.451 5.021C9.289 5.315 9.25 5.377 9.173 5.586C9.103 5.803 9.049 5.834 9.01 5.904C8.964 5.966 9.072 5.974 9.196 5.934C9.327 5.888 9.335 6.043 9.289 6.151C9.249 6.229 9.281 6.26 9.389 6.175C9.489 6.097 9.335 6.035 9.374 5.787C9.412 5.563 9.459 5.439 9.598 5.215C9.714 5.021 9.814 4.881 10.015 4.951C10.092 4.99 10.054 4.851 9.945 4.804H9.946ZM14.245 11.383C14.284 11.383 14.291 11.329 14.291 11.282C14.2868 11.1535 14.2343 11.0314 14.144 10.94C14.121 11.104 14.044 11.212 14.044 11.281C14.044 11.337 14.192 11.383 14.245 11.383ZM15.203 9.824C15.265 9.824 15.358 9.8 15.358 9.754C15.358 9.661 15.218 9.498 15.095 9.46C15.18 9.622 15.095 9.824 15.203 9.824ZM10.96 7.71C11.833 8.112 11.778 8.847 11.856 8.661C11.9051 8.52721 11.9159 8.38235 11.8871 8.24277C11.8583 8.10318 11.7911 7.97442 11.693 7.871C11.453 7.593 11.361 7.662 11.453 7.431C11.833 6.508 12.073 5.114 10.936 4.625C10.805 4.571 10.696 4.571 10.696 4.594C10.696 4.617 10.82 4.656 10.966 4.756C11.724 5.261 11.492 6.632 10.796 7.298C10.564 7.523 10.672 7.578 10.959 7.709L10.96 7.71ZM7.974 14.13C8.035 14.13 8.004 14.038 7.981 13.999C7.92214 13.9121 7.83852 13.8448 7.741 13.806C7.765 13.899 7.773 14.131 7.866 14.131L7.974 14.13ZM5.337 14.13C5.399 14.13 5.352 14.038 5.329 14C5.275 13.906 5.167 13.852 5.082 13.813C5.105 13.906 5.121 14.131 5.213 14.131L5.337 14.13ZM8.531 8.887C9.011 8.833 9.088 8.725 9.173 8.361C9.211 8.191 9.335 8.012 9.443 7.896C9.513 7.819 9.583 7.756 9.652 7.64C9.675 7.594 9.69 7.555 9.652 7.57C9.598 7.61 9.435 7.718 9.366 7.772C9.04602 7.97869 8.67898 8.10115 8.299 8.128C7.858 8.128 7.479 7.997 7.077 7.997C5.871 7.997 5.422 8.942 5.484 9.491C5.492 9.577 5.507 9.584 5.538 9.584C5.623 9.584 5.694 9.259 5.995 8.973C6.435 8.554 6.915 8.314 7.595 8.314C8.09 8.314 8.291 8.477 8.291 8.539C8.291 8.662 8.082 8.67 8.097 8.794C8.097 8.834 8.214 8.926 8.531 8.887Z" fill="#676866"/>
</g>
</g>
<defs>
<clipPath id="clip0_2_33">
<rect width="18" height="18" rx="3" fill="white"/>
</clipPath>
</defs>
</svg>
